HIERARCHY
ROOT link
{
	OFFSET 0.000000 0.000000 0.000000
	CHANNELS 6 Xposition Yposition Zposition Xrotation Yrotation Zrotation
	JOINT pasted__joint1
	{
		OFFSET 41.518826 8.544816 64.802582
		CHANNELS 3 Xrotation Yrotation Zrotation
		JOINT pasted__joint1a
		{
			OFFSET 33.417561 20.722454 50.624077
			CHANNELS 3 Xrotation Yrotation Zrotation
			JOINT pasted__joint1b
			{
				OFFSET 32.315689 43.370197 45.002876
				CHANNELS 3 Xrotation Yrotation Zrotation
				JOINT pasted__joint1c
				{
					OFFSET 29.709106 58.452698 35.935974
					CHANNELS 3 Xrotation Yrotation Zrotation
					End Site
					{
						OFFSET 0.000000 1.847656 0.000000
					}
				}
			}
		}
	}
	JOINT pasted__joint2
	{
		OFFSET 73.136429 10.693802 18.235542
		CHANNELS 3 Xrotation Yrotation Zrotation
		JOINT pasted__joint2a
		{
			OFFSET 40.413513 26.251923 10.883640
			CHANNELS 3 Xrotation Yrotation Zrotation
			JOINT pasted__joint12b
			{
				OFFSET 40.033478 29.033585 20.889858
				CHANNELS 3 Xrotation Yrotation Zrotation
				JOINT pasted__joint2c
				{
					OFFSET 24.956787 52.521515 21.669830
					CHANNELS 3 Xrotation Yrotation Zrotation
					End Site
					{
						OFFSET 0.000000 1.847656 0.000000
					}
				}
			}
		}
	}
	JOINT pasted__joint3
	{
		OFFSET 85.456772 20.043390 -15.126308
		CHANNELS 3 Xrotation Yrotation Zrotation
		JOINT pasted__joint3a
		{
			OFFSET 57.172714 32.287102 -6.535957
			CHANNELS 3 Xrotation Yrotation Zrotation
			JOINT pasted__joint3b
			{
				OFFSET 62.130341 56.716530 -9.764475
				CHANNELS 3 Xrotation Yrotation Zrotation
				JOINT pasted__joint3c
				{
					OFFSET 45.792160 91.623940 -8.026148
					CHANNELS 3 Xrotation Yrotation Zrotation
					End Site
					{
						OFFSET 0.000000 1.847656 0.000000
					}
				}
			}
		}
	}
	JOINT pasted__joint4
	{
		OFFSET 58.520325 13.656683 -56.617020
		CHANNELS 3 Xrotation Yrotation Zrotation
		JOINT pasted__joint4a
		{
			OFFSET 45.099182 52.991432 -44.231812
			CHANNELS 3 Xrotation Yrotation Zrotation
			JOINT pasted__joint4b
			{
				OFFSET 42.698456 79.661148 -26.378380
				CHANNELS 3 Xrotation Yrotation Zrotation
				End Site
				{
					OFFSET 0.000000 1.847656 0.000000
				}
			}
		}
	}
	JOINT pasted__joint5
	{
		OFFSET -42.998146 14.250694 -71.780006
		CHANNELS 3 Xrotation Yrotation Zrotation
		JOINT pasted__joint5a
		{
			OFFSET -34.349236 34.378502 -63.637245
			CHANNELS 3 Xrotation Yrotation Zrotation
			JOINT pasted__joint5b
			{
				OFFSET -23.054420 48.944473 -65.211227
				CHANNELS 3 Xrotation Yrotation Zrotation
				End Site
				{
					OFFSET 0.000000 1.847656 0.000000
				}
			}
		}
	}
	JOINT pasted__joint6
	{
		OFFSET -52.323193 16.423960 67.810669
		CHANNELS 3 Xrotation Yrotation Zrotation
		JOINT pasted__joint6a
		{
			OFFSET -28.961384 27.687620 40.976059
			CHANNELS 3 Xrotation Yrotation Zrotation
			JOINT pasted__joint6b
			{
				OFFSET -40.030281 43.750481 46.806229
				CHANNELS 3 Xrotation Yrotation Zrotation
				JOINT pasted__joint6c
				{
					OFFSET -43.983940 72.793655 36.817154
					CHANNELS 3 Xrotation Yrotation Zrotation
					End Site
					{
						OFFSET 0.000000 1.847656 0.000000
					}
				}
			}
		}
	}
	JOINT pasted__joint7
	{
		OFFSET -80.894478 23.409840 3.238891
		CHANNELS 3 Xrotation Yrotation Zrotation
		JOINT pasted__joint7a
		{
			OFFSET -63.617455 39.896427 0.553939
			CHANNELS 3 Xrotation Yrotation Zrotation
			JOINT pasted__joint7b
			{
				OFFSET -36.160263 58.133446 5.699441
				CHANNELS 3 Xrotation Yrotation Zrotation
				JOINT pasted__joint7c
				{
					OFFSET -48.937927 68.797653 16.797140
					CHANNELS 3 Xrotation Yrotation Zrotation
					End Site
					{
						OFFSET 0.000000 1.847656 0.000000
					}
				}
			}
		}
	}
	JOINT pasted__joint8
	{
		OFFSET -75.021332 11.883988 -45.837109
		CHANNELS 3 Xrotation Yrotation Zrotation
		JOINT pasted__joint8a
		{
			OFFSET -59.332306 26.115543 -35.177685
			CHANNELS 3 Xrotation Yrotation Zrotation
			JOINT pasted__joint8b
			{
				OFFSET -52.062027 37.287914 -29.061607
				CHANNELS 3 Xrotation Yrotation Zrotation
				End Site
				{
					OFFSET 0.000000 1.847656 0.000000
				}
			}
		}
	}
	JOINT pasted__joint9
	{
		OFFSET 24.757936 13.656683 -82.956070
		CHANNELS 3 Xrotation Yrotation Zrotation
		JOINT pasted__joint9a
		{
			OFFSET 18.511824 34.290581 -66.427322
			CHANNELS 3 Xrotation Yrotation Zrotation
			JOINT pasted__joint9b
			{
				OFFSET 9.743271 54.983414 -82.010605
				CHANNELS 3 Xrotation Yrotation Zrotation
				End Site
				{
					OFFSET 0.000000 1.847656 0.000000
				}
			}
		}
	}
}
MOTION
Frames: 9
Frame Time: 0.041667
0.000000 0.000000 0.000000 -0.000000 0.000000 -0.000000 -34.047936 -5.101245 26.829215 -23.458428 0.101095 17.652325 -22.068843 -8.347923 17.135037 -0.000000 -0.000002 -0.000002 -13.358454 3.528365 35.102996 -3.566324 -1.581364 20.641371 -11.418406 -0.615523 26.514067 -0.000001 -0.000000 -0.000001 0.002058 -4.682381 42.446173 6.221267 -4.748076 26.143613 4.072550 -0.711985 23.887839 -0.000000 0.000001 -0.000000 22.561162 9.819577 23.705452 19.805873 0.722326 20.284514 19.723944 -3.171252 19.618380 41.484404 -7.212472 -22.011348 33.975670 -6.421622 -16.294431 35.588615 -17.462777 -17.035684 -35.368635 18.538086 -18.381578 -22.402040 -0.685275 -16.252847 -25.224473 3.786524 -14.414112 -0.000000 -0.000001 0.000001 0.003664 -5.344631 -30.124242 -0.000000 0.000000 -27.495275 -0.000000 0.000000 -38.303428 -6.728734 1.164219 -45.978402 22.184193 -0.779394 -41.811802 16.121313 -7.645572 -33.913026 28.315833 -12.041769 -54.637914 50.044772 9.289600 1.470621 27.558022 0.065250 4.172525 47.143011 -3.561200 23.684284 
0.000000 0.000000 0.000000 -0.000000 0.000000 -0.000000 -34.117731 -4.390167 27.326663 -23.444078 0.129101 17.632415 -21.945676 -8.293536 17.056217 -0.000000 0.000001 -0.000001 -13.381566 3.850682 35.168436 -3.558859 -1.566983 20.570873 -11.373670 -0.534431 26.387527 -0.000000 -0.000000 -0.000000 0.004540 -4.572559 42.448301 6.199489 -4.761753 25.948765 4.078711 -0.707324 23.881044 -0.000000 -0.000000 -0.000000 22.649006 10.313910 23.490426 19.777499 0.719570 20.277215 19.723940 -3.171250 19.618383 41.437402 -6.863447 -22.323102 33.953837 -6.419688 -16.299111 35.306266 -17.274139 -16.951633 -35.323969 18.468582 -18.445257 -22.383300 -0.674023 -16.268276 -25.213742 3.783137 -14.421956 -0.000000 -0.000004 0.000000 0.005039 -5.258036 -30.126834 -0.000000 -0.000000 -27.495277 0.000000 -0.000000 -38.318615 -6.728734 1.164219 -45.978409 22.223106 -0.384427 -41.956431 16.109215 -7.636203 -33.902856 28.134353 -11.906138 -54.457597 50.045773 9.330134 1.424464 27.558203 0.055103 4.160629 46.765055 -3.655707 23.691618 
0.000000 0.000000 0.000000 -0.000000 0.000000 -0.000000 -34.191753 -3.690951 27.803555 -23.429723 0.157146 17.612520 -21.818300 -8.242890 16.980520 -0.000000 -0.000001 -0.000001 -13.404622 4.162867 35.228234 -3.547921 -1.552001 20.500371 -11.328826 -0.453849 26.264792 0.000001 0.000000 -0.000000 0.002483 -4.460752 42.450319 6.178477 -4.778969 25.751285 4.081317 -0.703469 23.873471 -0.000000 -0.000001 0.000000 22.740119 10.803848 23.271581 19.751466 0.720519 20.268796 19.723944 -3.171251 19.618383 41.389546 -6.513930 -22.634998 33.932004 -6.417749 -16.303793 35.020487 -17.085580 -16.867378 -35.272097 18.381267 -18.518308 -22.360231 -0.664296 -16.279595 -25.203996 3.776768 -14.430892 -0.000000 -0.000001 0.000002 0.003300 -5.170554 -30.125676 0.000000 -0.000000 -27.498313 -0.000000 0.000000 -38.328874 -6.728734 1.164219 -45.978405 22.259144 -0.010254 -42.097772 16.100805 -7.628555 -33.893284 27.951183 -11.774684 -54.276867 50.040162 9.352609 1.398937 27.555186 0.048309 4.147906 46.388107 -3.753637 23.699792 
0.000000 0.000000 0.000000 -0.000000 0.000000 -0.000000 -34.265041 -3.021890 28.261784 -23.419194 0.183768 17.596232 -21.695210 -8.188900 16.901655 0.000001 0.000002 -0.000001 -13.428263 4.463963 35.287134 -3.540989 -1.533976 20.425725 -11.280352 -0.372186 26.138290 0.000000 0.000001 -0.000000 0.003926 -4.347741 42.456599 6.157427 -4.795875 25.556966 4.084060 -0.699571 23.866643 -0.000000 -0.000000 0.000000 22.831050 11.285895 23.053323 19.722480 0.721856 20.264466 19.723939 -3.171251 19.618378 41.348790 -6.164446 -22.943446 33.912900 -6.419304 -16.307087 34.735350 -16.897949 -16.782410 -35.210114 18.274946 -18.605896 -22.341445 -0.653807 -16.291523 -25.196913 3.773933 -14.438661 -0.000000 0.000000 -0.000003 0.002250 -5.079698 -30.128316 -0.000000 0.000000 -27.498309 -0.000001 0.000000 -38.343999 -6.728733 1.164219 -45.978409 22.296207 0.348012 -42.224615 16.088715 -7.619181 -33.883045 27.773071 -11.641794 -54.092738 50.032659 9.355722 1.398045 27.551417 0.041435 4.135131 46.007970 -3.852297 23.707489 
0.000000 0.000000 0.000000 -0.000000 0.000000 -0.000000 -34.344568 -2.383196 28.694646 -23.404164 0.212071 17.575842 -21.568906 -8.131148 16.823458 -0.000001 0.000000 -0.000003 -13.449440 4.754803 35.345836 -3.530006 -1.518863 20.351602 -11.232006 -0.290503 26.008793 0.000001 0.000000 -0.000000 0.003852 -4.231392 42.458703 6.136396 -4.812781 25.362828 4.086645 -0.695661 23.859126 0.000000 -0.000001 -0.000000 22.923307 11.757996 22.837047 19.697041 0.723183 20.256616 19.723942 -3.171251 19.618381 41.305617 -5.815371 -23.247024 33.890979 -6.418488 -16.315239 34.447185 -16.709301 -16.693684 -35.144171 18.157692 -18.708269 -22.322020 -0.643570 -16.302987 -25.186809 3.770952 -14.446844 -0.000001 0.000001 0.000001 0.004611 -4.989694 -30.130864 -0.000000 -0.000001 -27.502090 -0.000001 -0.000000 -38.355166 -6.728734 1.164219 -45.978405 22.328319 0.683586 -42.342938 16.080156 -7.612200 -33.877380 27.591773 -11.506300 -53.904645 50.022857 9.340944 1.417356 27.551487 0.034681 4.122306 45.627754 -3.951322 23.714425 
0.000000 0.000000 0.000000 -0.000000 0.000000 -0.000000 -34.422678 -1.778865 29.098908 -23.389404 0.235933 17.558712 -21.442684 -8.077509 16.744977 -0.000000 0.000003 0.000003 -13.470323 5.035441 35.398733 -3.522541 -1.504422 20.277481 -11.186683 -0.209932 25.882336 0.000000 0.000001 0.000001 0.005075 -4.118377 42.461025 6.114333 -4.826388 25.164743 4.089253 -0.691810 23.851557 0.000000 0.000001 0.000000 23.014932 12.224756 22.617070 19.671015 0.724151 20.248208 19.723940 -3.171255 19.618381 41.264748 -5.468449 -23.546068 33.869201 -6.416563 -16.319912 34.155631 -16.520730 -16.604748 -35.072110 18.020122 -18.820887 -22.303307 -0.632289 -16.318430 -25.176009 3.767610 -14.454712 0.000000 -0.000000 0.000002 0.004676 -4.895444 -30.129600 -0.000000 0.000000 -27.502088 -0.000000 0.000000 -38.370357 -6.728734 1.164219 -45.978405 22.360602 0.997398 -42.454584 16.068056 -7.602847 -33.867196 27.410037 -11.373573 -53.721111 50.011383 9.305305 1.458020 27.547719 0.027808 4.109531 45.249310 -4.050865 23.718614 
0.000000 0.000000 0.000000 -0.000000 0.000000 -0.000000 -34.502274 -1.217176 29.470542 -23.378689 0.263375 17.538891 -21.315989 -8.023583 16.666141 -0.000000 -0.000003 0.000001 -13.491766 5.305345 35.447586 -3.511622 -1.489219 20.199741 -11.137759 -0.128233 25.752192 0.000000 -0.000001 -0.000000 0.005079 -4.002012 42.466448 6.093482 -4.843119 24.971569 4.091999 -0.687912 23.844727 0.000000 0.000000 -0.000000 23.107023 12.677476 22.402418 19.642637 0.721435 20.240929 19.723939 -3.171256 19.618380 41.226042 -5.121260 -23.844779 33.846596 -6.414033 -16.324289 33.860888 -16.328952 -16.516466 -34.988942 17.870753 -18.941235 -22.284438 -0.625460 -16.330636 -25.165214 3.764244 -14.462523 -0.000000 -0.000002 -0.000000 0.003609 -4.804580 -30.132336 0.000000 -0.000001 -27.505872 -0.000000 -0.000000 -38.380605 -6.728734 1.164219 -45.978409 22.392809 1.283734 -42.552874 16.059641 -7.595218 -33.857623 27.226966 -11.243345 -53.532974 49.994662 9.259741 1.519239 27.548631 0.017743 4.097681 44.871829 -4.153802 23.723540 
0.000000 0.000000 0.000000 -0.000000 0.000000 -0.000000 -34.573649 -0.705524 29.807755 -23.364469 0.290547 17.522507 -21.185690 -7.969296 16.587360 -0.000000 -0.000003 -0.000003 -13.513540 5.564200 35.495284 -3.504110 -1.474642 20.121997 -11.088604 -0.046290 25.618349 -0.000000 0.000001 0.000000 0.006272 -3.888947 42.468883 6.072183 -4.859985 24.774083 4.094610 -0.684059 23.837208 -0.000000 -0.000000 0.000000 23.199432 13.123637 22.189133 19.616713 0.723052 20.236133 19.723939 -3.171251 19.618381 41.192789 -4.779092 -24.134465 33.828636 -6.412803 -16.328880 33.566753 -16.138152 -16.427394 -34.903896 17.705450 -19.078250 -22.265626 -0.614948 -16.342577 -25.158816 3.760938 -14.467186 -0.000000 -0.000001 0.000000 0.003507 -4.710361 -30.135006 0.000000 -0.000000 -27.505874 -0.000000 -0.000000 -38.395734 -6.728733 1.164219 -45.978402 22.421235 1.549950 -42.643910 16.046587 -7.589161 -33.847020 27.045200 -11.111274 -53.345755 49.974585 9.192753 1.602247 27.544864 0.010874 4.084906 44.494188 -4.257097 23.727640 
0.000000 0.000000 0.000000 -0.000000 0.000000 -0.000000 -34.644557 -0.247509 30.111780 -23.352625 0.314147 17.504962 -21.059027 -7.915895 16.508419 0.000003 0.000003 0.000001 -13.530671 5.810188 35.540114 -3.497208 -1.456664 20.044356 -11.035902 0.035903 25.488161 0.000001 -0.000000 -0.000000 0.006225 -3.772662 42.471315 6.050871 -4.876806 24.576697 4.097373 -0.679976 23.834044 0.000000 0.000000 -0.000000 23.292299 13.554887 21.977418 19.591283 0.724404 20.228295 19.723937 -3.171253 19.618380 41.161647 -4.440539 -24.423129 33.806096 -6.410287 -16.333250 33.264852 -15.948266 -16.334037 -34.815680 17.527980 -19.218221 -22.246222 -0.604703 -16.354000 -25.148077 3.757601 -14.475051 -0.000001 0.000001 0.000003 0.004320 -4.612759 -30.137615 -0.000000 0.000000 -27.509656 -0.000001 -0.000000 -38.406908 -6.728734 1.164219 -45.978402 22.445183 1.785420 -42.725234 16.038158 -7.581551 -33.837498 26.863438 -10.977518 -53.153803 49.953920 9.114529 1.702104 27.541143 0.003983 4.072079 44.117257 -4.361513 23.728241 
